<?xml version="1.0" encoding="utf-8"?>
<!-- Svg Vector Icons : http://www.onlinewebfonts.com/icon -->
<!DOCTYPE svg PUBLIC "-//W3C//DTD SVG 1.1//EN" "http://www.w3.org/Graphics/SVG/1.1/DTD/svg11.dtd">
<svg version="1.1" xmlns="http://www.w3.org/2000/svg" xmlns:xlink="http://www.w3.org/1999/xlink" x="0px" y="0px" viewBox="0 0 256 256" enable-background="new 0 0 256 256" xml:space="preserve">
<metadata> Svg Vector Icons : http://www.onlinewebfonts.com/icon </metadata>
<g><g><path fill="#000000" d="M151.4,188.4c-0.2,0-0.3-0.1-0.5-0.1c-1.2-0.6-2.4-1.4-3.5-2.1c-0.6-0.3-1.1-0.6-1.7-0.9c-0.2-0.1-0.4-0.3-0.5-0.4c-0.3-0.2-0.7-0.3-1-0.4c-0.1-0.1-0.2-0.1-0.3-0.2h-31.5v-52.7h65v4.6c0,0,0-0.1,0.1-0.1c2.7-2,5.3-3.9,8.9-3.7c0.2,0,0.3,0,0.4,0.1v-5.7c0-2.6-2.1-4.8-4.7-4.8h-74.4c-2.6,0-4.7,2.2-4.7,4.8V189c0,2.6,2.1,4.8,4.7,4.8h48.1C155.1,191.5,153.4,189.8,151.4,188.4z"/><path fill="#000000" d="M210,44.7V21.2c0-2.6-2.1-4.8-4.7-4.8h-186c-2.6,0-4.6,2.1-4.6,4.8v23.5h0C14,48.2,10,69.7,10,81.1c0,7.3,1.6,13.5,4.6,18c0,0,0,0,0,0V213c0,2.7,2.1,4.8,4.6,4.8h125.2c-1.8-2.6-2.2-6.8-0.8-9.6H89.1v-81.6c0-2.6-2.1-4.8-4.7-4.8H42.6c-2.6,0-4.6,2.2-4.6,4.8v81.5H24V106.4c2.1,0.7,4.4,1.1,6.9,1.1c6,0,11.7-2.2,16.3-6.1c4.6,3.9,10.3,6.1,16.3,6.1c6,0,11.7-2.2,16.3-6.1c4.6,3.9,10.3,6.1,16.3,6.1c6,0,11.7-2.2,16.2-6.1c4.6,3.9,10.3,6.1,16.3,6.1c6,0,11.7-2.2,16.3-6.1c4.6,3.9,10.3,6.1,16.3,6.1c6,0,11.7-2.2,16.3-6.1c4.6,3.9,10.3,6.1,16.3,6.1c2.5,0,4.8-0.4,6.9-1.1v37.4c0.2,0,0.4,0,0.6,0.2c2.6,1.5,5.8,1.7,8.5,0.3c0.1-0.1,0.2-0.1,0.2-0.1V99.1c3-4.5,4.6-10.7,4.6-18C214.6,69.7,210.7,48.2,210,44.7z M47.3,131.5h32.5v76.7H47.3V131.5L47.3,131.5z M75.1,92.7c-3.1,3.3-7.2,5.2-11.6,5.2c-4.9,0-9.5-2.3-12.6-6.4l-3.7-4.7l-3.7,4.7c-3.1,4-7.7,6.4-12.6,6.4c-3.2,0-5.6-1-7.2-2.6c-0.4-0.9-1-1.8-1.8-2.3c-2-3.3-2.5-7.8-2.5-11.8c0-8.5,2.6-23.9,3.9-31.1h51.9V92.7z M140.2,92.7c-3,3.3-7.2,5.2-11.6,5.2c-4.9,0-9.5-2.3-12.6-6.4l-3.7-4.7l-3.6,4.7c-3.2,4-7.8,6.4-12.6,6.4c-4.4,0-8.5-1.9-11.6-5.2V50h55.7V92.7z M24,40.3V26h176.6v14.3H24z M201.9,94.2c-0.1,0.1-0.3,0.3-0.3,0.4c-1.7,2-4.3,3.3-7.9,3.3c-4.9,0-9.5-2.3-12.6-6.4l-3.7-4.7l-3.6,4.7c-3.2,4-7.8,6.4-12.6,6.4c-4.4,0-8.5-1.8-11.6-5.2V50h51.9c1.3,7.2,3.9,22.6,3.9,31.1C205.3,85.7,204.5,90.8,201.9,94.2z"/><path fill="#000000" d="M21.9,92.9"/><path fill="#000000" d="M246,203.5v-11.1h-18.3v-9.9l12.7-12.6l-6-6.1l-12.7,12.2h-11.5v-19h-10.3v19H190l-12.7-12.2l-6.8,6.1l13.6,12.6v9.9h-19.9v11.1H184v11.1l-13.6,11.9l6.8,7.6l12.7-13.5h9.9v19h11.9v-19h9.9l12.3,13.5l6.3-6.7l-12.7-15.9v-7.9H246L246,203.5z M215,208.2h-19.1v-19.1l19.1,0.4V208.2z"/></g></g>
</svg>